<?xml version="1.0" encoding="UTF-8"?>
<!DOCTYPE svg PUBLIC "-//W3C//DTD SVG 1.1//EN" "http://www.w3.org/Graphics/SVG/1.1/DTD/svg11.dtd">
<!-- Creator: CorelDRAW -->
<svg xmlns="http://www.w3.org/2000/svg" xml:space="preserve" width="6.82666in" height="6.82666in" style="shape-rendering:geometricPrecision; text-rendering:geometricPrecision; image-rendering:optimizeQuality; fill-rule:evenodd; clip-rule:evenodd"
viewBox="0 0 6.82666 6.82666"
 xmlns:xlink="http://www.w3.org/1999/xlink">
 <defs>
  <style type="text/css">
   <![CDATA[
    .fil2 {fill:none}
    .fil1 {fill:black}
    .fil0 {fill:black;fill-rule:nonzero}
   ]]>
  </style>
 </defs>
 <g id="Layer_x0020_1">
  <metadata id="CorelCorpID_0Corel-Layer"/>
  <g id="_174899288">
   <g>
    <path id="_170532032" class="fil0" d="M4.94714 3.07263c-0.0243898,-0.0163346 -0.0574134,-0.00980709 -0.073748,0.0145827 -0.0163346,0.0243898 -0.00980709,0.0574134 0.0145827,0.073748 0.392197,0.262291 0.600528,0.101917 0.671213,0.0222008 0.0869055,0.0352008 0.12985,0.0518504 0.178189,0.0394449 0.0461024,-0.0118307 0.0743661,-0.0442638 0.128783,-0.106701 0.0126575,-0.0145236 0.0268701,-0.0308346 0.039685,-0.045185 0.179657,-0.201213 -0.038374,-0.349547 -0.0675354,-0.368028 -0.226472,-0.162059 -0.230055,-0.182453 -0.243752,-0.260657 -0.00798031,-0.0455472 -0.0186575,-0.106488 -0.0574213,-0.20535 -0.0645276,-0.164587 -0.19785,-0.334697 -0.317736,-0.428717 -0.0443543,-0.0347795 -0.0878819,-0.0600669 -0.127,-0.0722362 -0.0504882,-0.0157087 -0.095752,-0.0115079 -0.131248,0.0178819 -0.0218661,0.0181063 -0.0377126,0.0446614 -0.0460197,0.0807244 -0.0145945,0.0633543 -0.0498307,0.00689764 -0.056189,-0.00402362 -0.0790276,-0.197736 -0.133945,-0.301559 -0.170311,-0.342024 -0.059248,-0.0659134 -0.101291,-0.0543661 -0.129094,0.0109213 -0.0107953,0.0253465 -0.013815,0.0672795 -0.0110118,0.118079 0.00761811,0.13811 0.0574528,0.369819 0.104965,0.479248 -0.100969,0.151319 -0.298646,0.194677 -0.34752,0.203287 -0.126917,-0.0394134 -0.256835,-0.0531339 -0.387709,-0.0438228 -0.139268,0.00990945 -0.279728,0.0459921 -0.41889,0.105 -0.370429,0.157071 -1.16214,0.0536535 -1.67776,-0.0136969 -0.0804291,-0.0105039 -0.154913,-0.0202402 -0.202409,-0.0259724 -0.121752,-0.0146969 -0.221799,0.0212598 -0.301083,0.0849646 -0.0935748,0.075185 -0.156209,0.188795 -0.190193,0.301236 -0.0608307,0.20126 -0.00238583,0.627209 0.0532441,1.03261 0.0477953,0.348327 0.0934567,0.681067 0.0584173,0.820335l-7.48031e-005 -1.9685e-005c-0.00324409,0.0128819 -0.0015,0.0258504 0.00400787,0.0368701 0.031,0.0759724 0.0287244,0.212492 0.0267047,0.333787 -0.0026811,0.160925 -0.00500394,0.300047 0.0854961,0.316508 0.0356772,0.00648819 0.0643976,0.00168898 0.087626,-0.00755512 0.0058937,0.0626102 0.0243937,0.129602 0.0997283,0.128772 0.0280866,-0.000307087 0.0469961,3.93701e-006 0.0633228,0.000275591 0.0405157,0.000673228 0.0664843,0.0011063 0.162465,-0.0069252l-0.00437402 -0.053126 0.00444882 0.0531457c0.0293504,-0.00245669 0.0511535,-0.0282441 0.0486969,-0.0575945 -0.000468504,-0.00561417 -0.00179528,-0.0109449 -0.00383465,-0.0158898 -0.0765591,-0.224909 -0.107047,-0.438594 -0.107047,-0.626161 0,-0.188717 0.0308071,-0.350012 0.0764134,-0.46885 0.041937,-0.109272 0.0931063,-0.178752 0.140217,-0.194874 0.00514173,-0.00175984 0.0101811,-0.00266142 0.015063,-0.00266142 0.00317717,0 0.00629134,-0.000283465 0.00931496,-0.000814961 0.272157,-0.0252677 0.498177,-0.000161417 0.736449,0.0263071 0.351748,0.0390748 0.729701,0.081063 1.32504,-0.0265354 0.028878,-0.00517323 0.0480906,-0.0327874 0.0429173,-0.0616654 -0.00517323,-0.028878 -0.0327874,-0.0480906 -0.0616654,-0.0429173 -0.579469,0.104728 -0.94989,0.0635787 -1.29463,0.0252835 -0.243358,-0.0270394 -0.474201,-0.0526693 -0.757921,-0.0263228 -0.016189,5.90551e-005 -0.0324843,0.0029252 -0.0487402,0.00849213 -0.0768307,0.0262913 -0.152122,0.118366 -0.205634,0.257795 -0.0498386,0.129862 -0.0835,0.304437 -0.0835,0.506764 0,0.180559 0.0267717,0.384024 0.092811,0.598421 -0.0415591,0.00259055 -0.0600669,0.0022874 -0.0848268,0.00187795 -0.0167913,-0.000275591 -0.0362362,-0.000602362 -0.0658268,-0.000275591 -0.00761024,8.26772e-005 0.00574016,-0.0446811 0.00451575,-0.0737717 -0.000559055,-0.0132795 -0.00105118,-0.0249409 -0.00197244,-0.0328583 -0.0048189,-0.0413071 -0.0219134,-0.0645709 -0.0641496,-0.0596417 -0.0198386,0.00230709 -0.0309606,0.011563 -0.0457165,0.0238583 -0.0126496,0.0105354 -0.0333622,0.0277913 -0.0604488,0.0228661 -0.00148425,-0.000267717 0.000133858,-0.0976339 0.00200787,-0.210256 0.00209843,-0.126185 0.00444882,-0.267508 -0.0297677,-0.363429 0.0329252,-0.165264 -0.0125669,-0.496819 -0.060122,-0.843378 -0.0540669,-0.394012 -0.11087,-0.807992 -0.0565827,-0.987606 0.0285748,-0.0945394 0.0797756,-0.18889 0.154783,-0.249157 0.0580591,-0.0466496 0.131732,-0.0729291 0.221917,-0.0620433 0.0733346,0.00885433 0.134689,0.016874 0.201157,0.0255551 0.526862,0.0688189 1.33584,0.174496 1.73276,0.00619291 0.128169,-0.0543504 0.257327,-0.0875669 0.385134,-0.0966614 0.120531,-0.00857874 0.239823,0.00438189 0.355854,0.0413937 0.00840945,0.0034685 0.0178228,0.00483071 0.0274843,0.00351575l-1.9685e-005 -0.000149606c0.00411417,-0.000547244 0.314673,-0.0423031 0.449579,-0.278138 0.010626,-0.0161496 0.0120709,-0.0375276 0.00193307,-0.0555315l-6.29921e-005 3.54331e-005c-0.0428228,-0.0761417 -0.0924921,-0.296756 -0.104161,-0.439087 0.0267953,0.0515079 0.0609449,0.127878 0.103783,0.235075 0.00107874,0.00361417 0.00255512,0.00717323 0.00445276,0.0106102l8.26772e-005 -4.33071e-005c0.00287402,0.00524803 0.175587,0.319362 0.254197,-0.0218504 0.00272047,-0.011811 0.00617717,-0.0190748 0.010185,-0.0223937 0.00492126,-0.0040748 0.0161378,-0.00312205 0.0316654,0.00170866 0.0268976,0.00837008 0.0589567,0.0274252 0.093252,0.054315 0.10698,0.0839016 0.226122,0.236118 0.283988,0.383717 0.0346811,0.0884528 0.0443583,0.143665 0.0515866,0.184933 0.0195472,0.111587 0.0247441,0.141051 0.283783,0.32663 0.00205906,0.00172441 0.00427953,0.0033189 0.00664961,0.00475591l0.0276614 -0.0455984 -0.0275 0.0454173c0.000429134,0.000259843 0.152181,0.0899882 0.0465276,0.208315 -0.0173307,0.0194094 -0.0295709,0.0334567 -0.0405197,0.0460197 -0.0402913,0.0462283 -0.0612205,0.0702441 -0.0750354,0.0737874 -0.0152323,0.00390945 -0.0486732,-0.00964173 -0.118248,-0.0378346l-0.0278543 -0.0111772c-0.0245787,-0.0120157 -0.0546969,-0.00344488 -0.0690669,0.020437l5.11811e-005 3.14961e-005c-0.00109449,0.00185433 -0.146732,0.250421 -0.548866,-0.0185197z"/>
    <path id="_170531960" class="fil0" d="M4.96381 3.14305c0.0144961,-0.0255394 0.00553937,-0.058 -0.02,-0.0724961 -0.0255394,-0.0144961 -0.058,-0.00553937 -0.0724961,0.02 -0.00657087,0.0115354 -0.0248583,0.0329724 -0.0470748,0.0590118 -0.061374,0.071937 -0.148866,0.174492 -0.170563,0.284016 -0.0295512,0.149169 -0.0778268,0.224508 -0.124815,0.297839 -0.0836299,0.130516 -0.16365,0.255406 -0.151189,0.696154 0.00129528,0.0459055 -0.00531496,0.0609094 -0.0156693,0.0843937 -0.0109843,0.0249252 -0.0250276,0.0567677 -0.0395984,0.12013 -0.0252441,0.109776 0.0509606,0.351614 0.105256,0.523933 0.0124449,0.0394882 0.0236772,0.0751417 0.0319843,0.103583 -0.042189,0.00974409 -0.0740079,0.00680315 -0.105961,0.00385039 -0.0246417,-0.00227559 -0.0493622,-0.00456299 -0.078374,-0.00302362 -0.0161772,0.000858268 0.0147953,-0.0337323 0.0138937,-0.0552598 -0.000492126,-0.0117913 -0.000929134,-0.0221339 -0.00173622,-0.0291102 -0.00465748,-0.0400984 -0.0215866,-0.062685 -0.0633898,-0.0578701 -0.0192008,0.00223622 -0.0295118,0.0107913 -0.0431457,0.0221575 -0.00977953,0.00814567 -0.0258031,0.0214882 -0.0454724,0.0179134 -0.00678346,-0.00123228 -0.00219291,-0.10126 0.00481102,-0.253913 0.0113819,-0.24802 0.0280669,-0.611681 -0.0897559,-0.977756 -0.00897244,-0.0279567 -0.0389173,-0.0433504 -0.066874,-0.034378 -0.0279567,0.00897244 -0.0433504,0.0389173 -0.034378,0.066874 0.111957,0.347854 0.0957874,0.700303 0.0847559,0.940677 -0.00956693,0.208531 -0.0158307,0.345165 0.0826929,0.363079 0.0275787,0.00501181 0.0504882,0.00259843 0.0696024,-0.00338976 0.00629921,0.0551417 0.025252,0.110894 0.0944134,0.107228 0.0223465,-0.00118504 0.0428976,0.000712598 0.063374,0.0026063 0.0539646,0.00498819 0.10763,0.00995669 0.194732,-0.0229764 0.0265354,-0.00768504 0.043063,-0.0346693 0.0373031,-0.0621535l-0.000133858 2.75591e-005c-0.00734646,-0.0350394 -0.0252835,-0.0919528 -0.0466732,-0.159835 -0.0507323,-0.161004 -0.121929,-0.386969 -0.103177,-0.468516 0.0121732,-0.0529409 0.0240551,-0.0798819 0.0333465,-0.100965 0.0161181,-0.0365591 0.0264094,-0.0599094 0.0244252,-0.13022 -0.0115276,-0.407807 0.0598858,-0.519264 0.13452,-0.635744 0.0524567,-0.0818622 0.106343,-0.165957 0.139815,-0.334917 0.0162992,-0.0822874 0.0930079,-0.172201 0.146815,-0.235268 0.0257874,-0.0302283 0.0470157,-0.0551063 0.0587362,-0.0756811z"/>
    <path id="_170536712" class="fil0" d="M1.43047 2.45479c0.0292244,-0.00298819 0.0504882,-0.0291102 0.0475,-0.0583346 -0.00298819,-0.0292244 -0.0291102,-0.0504882 -0.0583346,-0.0475 -0.00162992,0.000165354 -0.571878,0.0533701 -0.510575,0.62063 0.054811,0.507154 -0.0550079,1.38464 -0.0553189,1.38718 -0.00356299,0.0292244 0.0172362,0.055811 0.0464606,0.059374 0.0292244,0.00356299 0.055811,-0.0172362 0.059374,-0.0464606 0.000314961,-0.00257087 0.111543,-0.89113 0.0553189,-1.41134 -0.0497244,-0.460106 0.414244,-0.503409 0.415575,-0.503543z"/>
    <path id="_170537600" class="fil0" d="M2.65776 3.98042c0.00598031,-0.0287638 -0.0124843,-0.056937 -0.041248,-0.0629173 -0.0287638,-0.00598031 -0.056937,0.0124843 -0.0629173,0.041248 -8.66142e-005,0.000413386 -0.0279961,0.145303 -0.246839,0.166827l-1.5748e-005 -0.00015748c-0.0284134,0.00279528 -0.0494173,0.0274134 -0.0480512,0.0556181 -0.00846063,0.243606 -0.0060748,0.323567 -0.008,0.3235 -0.00609449,-0.000212598 -0.0237795,-0.0858189 -0.0503189,-0.162264 -0.0193976,-0.0558819 -0.0374134,-0.107752 -0.0539409,-0.135992 -0.0280945,-0.0479882 -0.0594606,-0.0571969 -0.0950157,-0.036378 -0.0343543,0.0201063 -0.0424409,0.0749291 -0.0528701,0.145685 -0.00593701,0.0402953 -0.012878,0.0873543 -0.0233701,0.130665 0.00343307,-0.0394606 0.00620472,-0.110622 0.00450394,-0.238799l-0.053126 0.000625984 0.0533268 -0.000708661c-0.000346457,-0.0260709 -0.0193504,-0.0475197 -0.0441378,-0.0518307l-0.139913 -0.0347087c-0.0285315,-0.00701575 -0.0573583,0.0104252 -0.064374,0.0389567 -0.00701575,0.0285315 0.0104252,0.0573583 0.0389567,0.064374l0.103941 0.0257874c0.0129134,0.415469 0.131724,0.348697 0.159319,0.327406 0.00786614,-0.00553543 0.0143346,-0.0132638 0.0183622,-0.0227717l-0.0491024 -0.020815 0.0489567 0.020626c0.0238425,-0.0562402 0.0366811,-0.123528 0.0460472,-0.183358l0.00201969 0.0058189c0.0378307,0.108965 0.0803976,0.231587 0.147406,0.233933 0.0572441,0.002 0.101886,-0.0936417 0.115878,-0.385783 0.255898,-0.0461772 0.294402,-0.243988 0.294524,-0.244587z"/>
   </g>
   <ellipse id="_174903056" class="fil1" transform="matrix(0.731147 -0.383898 0.383903 0.731156 5.22174 2.30926)" rx="0.0645827" ry="0.127083"/>
  </g>
 </g>
 <rect class="fil2" width="6.82666" height="6.82666"/>
</svg>
